Coordinates
version=1
nRows=49
nColumns=12
inDegrees=yes

Units are S.I. units (second, meters, Newtons, ...)
Angles are in degrees

endheader
time	SC_y	SC_z	SC_x	AC_y	AC_z	AC_x	GH_y	GH_z	GH_yy	EL_x	PS_y
       0.0              -37.72           6.14           77.1          57.57         -12.17        -0.1131         -145.5          65.74           97.8          128.0          115.0
   0.01877              -37.72          6.139          77.09          57.57         -12.17        -0.1115         -145.5          65.73          97.76          128.0          115.0
   0.03754              -37.72          6.138          77.09          57.57         -12.17        -0.1097         -145.4          65.72          97.72          128.0          115.0
   0.05631              -37.72          6.137          77.08          57.57         -12.17        -0.1078         -145.4           65.7          97.68          127.9          115.0
   0.07508              -37.71          6.136          77.08          57.57         -12.17        -0.1059         -145.3          65.69          97.63          127.9          115.0
   0.09385              -37.71          6.135          77.07          57.57         -12.17        -0.1037         -145.3          65.67          97.58          127.9          115.0
    0.1126              -37.71          6.133          77.06          57.57         -12.16        -0.1015         -145.2          65.66          97.53          127.9          115.0
    0.1314              -37.71          6.132          77.05          57.57         -12.16       -0.09904         -145.2          65.64          97.47          127.9          115.0
    0.1502              -37.71           6.13          77.05          57.57         -12.16       -0.09644         -145.1          65.62          97.41          127.9          115.0
    0.1689              -37.71          6.129          77.04          57.57         -12.16       -0.09365         -145.1           65.6          97.34          127.8          115.0
    0.1877              -37.71          6.127          77.03          57.56         -12.16       -0.09066         -145.0          65.58          97.27          127.8          115.0
    0.2065              -37.71          6.125          77.02          57.56         -12.16       -0.08744         -144.9          65.55           97.2          127.8          115.0
    0.2252              -37.71          6.123          77.01          57.56         -12.16       -0.08397         -144.8          65.53          97.11          127.8          115.0
     0.244              -37.71          6.121           77.0          57.56         -12.15       -0.08022         -144.7           65.5          97.02          127.8          115.0
    0.2628              -37.71          6.119          76.98          57.56         -12.15       -0.07616         -144.6          65.47          96.93          127.7          115.0
    0.2816              -37.71          6.116          76.97          57.56         -12.15       -0.07176         -144.5          65.44          96.82          127.7          115.0
    0.3003              -37.71          6.113          76.96          57.56         -12.15       -0.06697         -144.4           65.4          96.71          127.7          115.0
    0.3191              -37.71           6.11          76.94          57.55         -12.14       -0.06176         -144.3          65.36          96.59          127.6          115.1
    0.3379              -37.71          6.107          76.92          57.55         -12.14       -0.05607         -144.2          65.32          96.45          127.6          115.1
    0.3566               -37.7          6.103           76.9          57.55         -12.14       -0.04984         -144.0          65.27          96.31          127.5          115.1
    0.3754               -37.7          6.099          76.88          57.55         -12.14         -0.043         -143.8          65.22          96.14          127.5          115.1
    0.3942               -37.7          6.095          76.86          57.55         -12.13       -0.03547         -143.7          65.17          95.97          127.4          115.1
    0.4129               -37.7           6.09          76.83          57.54         -12.13       -0.02715         -143.5          65.11          95.77          127.4          115.1
    0.4317               -37.7          6.084          76.81          57.54         -12.12       -0.01794         -143.2          65.04          95.55          127.3          115.1
    0.4505               -37.7          6.078          76.78          57.54         -12.12      -0.007696         -143.0          64.96          95.31          127.3          115.2
    0.4693               -37.7          6.072          76.74          57.53         -12.11       0.003734         -142.7          64.88          95.04          127.2          115.2
     0.488              -37.69          6.064           76.7          57.53         -12.11        0.01654         -142.4          64.78          94.73          127.1          115.2
    0.5068              -37.69          6.056          76.66          57.52          -12.1        0.03094         -142.1          64.68          94.39          127.0          115.2
    0.5256              -37.69          6.046          76.61          57.52         -12.09        0.04722         -141.7          64.56          94.01          126.9          115.3
    0.5443              -37.68          6.035          76.55          57.51         -12.08         0.0657         -141.3          64.42          93.57          126.7          115.3
    0.5631              -37.68          6.023          76.49           57.5         -12.07        0.08679         -140.8          64.26          93.07          126.6          115.4
    0.5819              -37.68          6.009          76.41          57.49         -12.06          0.111         -140.2          64.08           92.5          126.4          115.4
    0.6007              -37.67          5.993          76.33          57.48         -12.04         0.1389         -139.5          63.88          91.84          126.2          115.5
    0.6194              -37.67          5.974          76.23          57.47         -12.03         0.1714         -138.7          63.64          91.07          126.0          115.5
    0.6382              -37.66          5.951          76.11          57.46         -12.01         0.2094         -137.8          63.35          90.17          125.7          115.6
     0.657              -37.65          5.925          75.97          57.44         -11.99         0.2542         -136.8          63.02          89.11          125.4          115.7
    0.6757              -37.64          5.894          75.81          57.43         -11.96         0.3074         -135.5          62.63          87.85          125.1          115.8
    0.6945              -37.63          5.857          75.61           57.4         -11.93         0.3712         -134.0          62.16          86.34          124.6          115.9
    0.7133              -37.62          5.811          75.38          57.38         -11.89         0.4484         -132.1          61.58          84.51          124.1          116.1
     0.732               -37.6          5.756          75.09          57.34         -11.84         0.5427         -129.9          60.89          82.28          123.4          116.2
    0.7508              -37.58          5.688          74.73           57.3         -11.78         0.6591         -127.1          60.02          79.52          122.6          116.5
    0.7696              -37.55          5.603          74.29          57.25         -11.71         0.8042         -123.6          58.95          76.09          121.6          116.8
    0.7884              -37.52          5.496          73.73          57.19         -11.62          0.987         -119.3           57.6          71.76          120.3          117.1
    0.8071              -37.48           5.36          73.02          57.11          -11.5          1.219         -113.7          55.87          66.26          118.7          117.6
    0.8259              -37.43          5.186          72.11           57.0         -11.35          1.517         -106.7          53.67          59.22          116.6          118.2
    0.8447              -37.36          4.962          70.94          56.87         -11.16          1.899         -97.55          50.84          50.18          114.0          118.9
    0.8634              -37.27          4.676          69.45           56.7         -10.92          2.386         -85.92          47.23          38.64          110.6          119.9
    0.8822              -37.16          4.317          67.57          56.48         -10.61          2.999          -71.3          42.69          24.13          106.3          121.1
     0.901              -37.03           3.88          65.28          56.22         -10.24          3.746         -53.49          37.16          6.445          101.1          122.6
